<?xml version="1.0" encoding="UTF-8"?>
<svg id="Layer_2" data-name="Layer 2" xmlns="http://www.w3.org/2000/svg" xmlns:xlink="http://www.w3.org/1999/xlink" viewBox="0 0 751.89 1061.83">
  <defs>
    <style>
      .cls-1 {
        fill: none;
      }

      .cls-1, .cls-2, .cls-3 {
        stroke-width: 0px;
      }

      .cls-4 {
        clip-path: url(#clippath-1);
      }

      .cls-2 {
        fill: #0e1747;
      }

      .cls-5 {
        clip-path: url(#clippath);
      }

      .cls-3 {
        fill: #69c4ec;
      }
    </style>
    <clipPath id="clippath">
      <rect class="cls-1" x="92.84" y="0" width="276.62" height="143.84"/>
    </clipPath>
    <clipPath id="clippath-1">
      <rect class="cls-1" x="369.44" y="0" width="276.62" height="143.84"/>
    </clipPath>
  </defs>
  <g id="Layer_3" data-name="Layer 3">
    <g id="Layer_1_copy" data-name="Layer 1 copy">
      <path class="cls-2" d="M194.93,629.96c-89.5,0-162.3-72.81-162.3-162.29s72.8-162.3,162.3-162.3,162.29,72.8,162.29,162.3-72.81,162.29-162.29,162.29ZM194.93,332.79c-74.37,0-134.87,60.51-134.87,134.88s60.5,134.86,134.87,134.86,134.86-60.49,134.86-134.86-60.49-134.88-134.86-134.88Z"/>
      <path class="cls-2" d="M589.58,629.96c-89.5,0-162.31-72.81-162.31-162.29s72.81-162.3,162.31-162.3,162.31,72.8,162.31,162.3-72.81,162.29-162.31,162.29ZM589.58,332.79c-74.37,0-134.87,60.51-134.87,134.88s60.5,134.86,134.87,134.86,134.87-60.49,134.87-134.86-60.5-134.88-134.87-134.88Z"/>
      <path class="cls-2" d="M661.04,812.26c-5.29,0-10.33-3.07-12.58-8.22-2.57-5.85-63.93-140.88-228.7-140.88-7.57,0-13.72-6.15-13.72-13.72s6.15-13.72,13.72-13.72c183.18,0,253.15,155.77,253.84,157.35,3.02,6.94-.15,15.02-7.1,18.05-1.78.77-3.63,1.14-5.46,1.14Z"/>
      <path class="cls-2" d="M96.86,892.53c-.33,0-.65-.01-.99-.03-7.55-.54-13.23-7.07-12.7-14.61.15-2.14,17.85-215.24,268.71-242.07,7.58-.75,14.29,4.66,15.09,12.18.8,7.52-4.65,14.29-12.18,15.09-227.52,24.34-243.69,208.88-244.26,216.73-.54,7.21-6.56,12.72-13.67,12.72Z"/>
      <path class="cls-3" d="M387.3,707.79c-.06,0-.13,0-.19-.01-4.55-.06-8.78-2.38-11.28-6.18l-58.77-89.62c-3.56-5.44-2.82-12.62,1.77-17.22l56.22-56.21c5.36-5.36,14.04-5.36,19.4,0l61.32,61.32c4.69,4.69,5.34,12.07,1.56,17.52l-58.77,84.51c-2.56,3.69-6.78,5.89-11.26,5.89ZM346.11,606.26l41.52,63.32,40.63-58.43-43.51-43.51-38.63,38.62Z"/>
      <g>
        <path class="cls-3" d="M178.84,564.28c-3.26,0-6.56-.16-9.86-.49-54.44-5.41-94.32-54.09-88.93-108.51.75-7.53,7.41-13.11,15-12.3,7.53.75,13.04,7.46,12.3,15-3.9,39.38,24.95,74.6,64.33,78.52,39.57,4.02,74.62-24.96,78.52-64.35,1.9-19.08-3.75-37.75-15.91-52.58-12.14-14.82-29.35-24.03-48.43-25.93-24.39-2.42-48,7.56-63.2,26.72-4.7,5.92-13.33,6.92-19.27,2.2-5.93-4.72-6.92-13.33-2.2-19.27,21.03-26.47,53.77-40.27,87.38-36.94,26.37,2.61,50.14,15.34,66.94,35.83,16.79,20.49,24.6,46.31,21.98,72.67-5.07,51.12-48.31,89.43-98.65,89.43Z"/>
        <path class="cls-3" d="M209.66,480.05c-6.36,0-12.05-4.44-13.41-10.9-4.38-20.9-13.58-22.61-13.96-22.67-7.57-.21-13.16-6.5-12.95-14.07.21-7.44,6.67-13.31,14.08-13.31.13,0,.26.01.4.01,11.19.3,32.07,10.01,39.29,44.4,1.55,7.42-3.2,14.68-10.61,16.24-.95.2-1.9.29-2.83.29Z"/>
      </g>
      <g>
        <path class="cls-3" d="M577.38,564.28c-3.31,0-6.64-.16-9.97-.49-54.44-5.41-94.33-54.09-88.94-108.51.75-7.53,7.32-13.11,15-12.3,7.53.75,13.04,7.46,12.3,15-3.9,39.38,24.96,74.6,64.35,78.52,19.14,1.94,37.76-3.75,52.58-15.91,14.83-12.16,24.04-29.35,25.93-48.44,1.9-19.08-3.76-37.76-15.91-52.58-12.16-14.82-29.35-24.03-48.44-25.93-24.48-2.41-47.99,7.57-63.2,26.72-4.73,5.92-13.33,6.92-19.27,2.2-5.93-4.72-6.92-13.34-2.2-19.27,21.04-26.46,53.64-40.29,87.38-36.94,26.37,2.61,50.15,15.34,66.94,35.83,16.8,20.49,24.6,46.31,22,72.67-2.62,26.37-15.35,50.15-35.84,66.94-17.9,14.67-39.86,22.48-62.7,22.48Z"/>
        <path class="cls-3" d="M608.08,480.05c-6.36,0-12.05-4.44-13.41-10.9-4.38-20.9-13.57-22.61-13.95-22.67-7.57-.21-13.16-6.5-12.95-14.07.21-7.44,6.67-13.31,14.08-13.31.13,0,.26.01.4.01,11.19.31,32.06,10.01,39.28,44.4,1.55,7.42-3.2,14.68-10.61,16.24-.95.2-1.9.29-2.83.29Z"/>
      </g>
      <path class="cls-2" d="M399.25,1036.61h-38.05c-111.18,0-212.88-53.55-272.06-143.23-7.67-11.63-14.89-24-21.47-36.76-22.92-44.54-35.03-95.71-35.03-148.02v-92.35h27.43v92.35c0,47.96,11.06,94.81,31.99,135.47,6.12,11.88,12.84,23.39,19.98,34.2,54.09,81.97,147.24,130.91,249.17,130.91h38.05c57.51,0,112.38-15.52,158.65-44.89,29.16-18.53,54.79-40.66,76.16-65.81,44.04-51.77,68.28-119.78,68.28-191.52l-3.17-156.07,27.41-.56,3.18,156.34c.01,78.52-26.56,152.85-74.81,209.57-23.16,27.24-50.87,51.19-82.36,71.19-50.67,32.17-110.62,49.17-173.35,49.17Z"/>
      <g>
        <polygon class="cls-3" points="660.09 1061.83 634.37 1061.49 654.07 977.73 679.79 978.06 660.09 1061.83"/>
        <polygon class="cls-3" points="608.8 1061.83 583.07 1061.49 602.77 977.73 628.49 978.06 608.8 1061.83"/>
        <polygon class="cls-3" points="557.5 1061.83 531.77 1061.49 551.47 977.73 577.2 978.06 557.5 1061.83"/>
        <polygon class="cls-3" points="93.84 1061.83 119.56 1061.49 99.86 977.73 74.14 978.06 93.84 1061.83"/>
        <polygon class="cls-3" points="145.13 1061.83 170.86 1061.49 151.16 977.73 125.44 978.06 145.13 1061.83"/>
        <polygon class="cls-3" points="196.43 1061.83 222.16 1061.49 202.46 977.73 176.73 978.06 196.43 1061.83"/>
      </g>
      <rect class="cls-3" x="186.32" y="138.92" width="27.43" height="83.07"/>
      <rect class="cls-3" x="522.8" y="138.92" width="27.43" height="83.07"/>
      <g>
        <g id="_Mirror_Repeat_" data-name="&amp;lt;Mirror Repeat&amp;gt;">
          <g class="cls-5">
            <path class="cls-3" d="M194.93,143.85c-1.56,0-3.12-.27-4.6-.79l-88.38-31.44c-5.53-1.97-9.2-7.24-9.11-13.12.08-5.87,3.9-11.04,9.49-12.85L365.23.67c7.18-2.34,14.93,1.63,17.27,8.83,2.33,7.2-1.63,14.93-8.84,17.26l-224.46,72.55,46.86,16.67c14.47-2.5,69.22-10.57,173.39-10.57,7.57,0,13.72,6.14,13.72,13.71s-6.15,13.71-13.72,13.71c-117.38,0-171.26,10.63-171.78,10.74-.91.18-1.82.27-2.74.27Z"/>
          </g>
        </g>
        <g id="_Mirror_Repeat_-2" data-name="&amp;lt;Mirror Repeat&amp;gt;">
          <g class="cls-4">
            <path class="cls-3" d="M543.97,143.85c-.92,0-1.83-.09-2.74-.27-.52-.1-54.4-10.74-171.78-10.74-7.57,0-13.72-6.14-13.72-13.71s6.15-13.71,13.72-13.71c104.17,0,158.92,8.07,173.39,10.57l46.86-16.67L365.23,26.77c-7.21-2.33-11.17-10.06-8.84-17.26,2.34-7.2,10.1-11.17,17.27-8.83l262.9,84.97c5.59,1.8,9.41,6.97,9.49,12.85.09,5.87-3.57,11.15-9.11,13.12l-88.38,31.44c-1.48.52-3.04.79-4.6.79Z"/>
          </g>
        </g>
      </g>
      <path class="cls-3" d="M104.31,172.93c-7.57,0-13.72-6.14-13.72-13.71v-59.36c0-7.57,6.15-13.71,13.72-13.71s13.72,6.14,13.72,13.71v59.36c0,7.57-6.15,13.71-13.72,13.71Z"/>
      <path class="cls-3" d="M133.16,238.88c-2.22,0-4.48-.54-6.57-1.69-6.65-3.63-9.08-11.96-5.45-18.61,2.2-4.03,3.37-8.58,3.37-13.13,0-13.71-10.11-24.85-22.54-24.85s-22.54,11.15-22.54,24.85c0,3.13.51,6.16,1.49,8.77,2.67,7.09-.92,14.99-8.01,17.66-7.03,2.64-15-.92-17.65-8.02-2.17-5.74-3.25-11.94-3.25-18.42,0-28.82,22.42-52.28,49.97-52.28s49.98,23.45,49.98,52.28c0,9.14-2.33,18.23-6.74,26.29-2.49,4.55-7.18,7.14-12.04,7.14Z"/>
      <path class="cls-2" d="M46.31,342.61c-4.22,0-8.37-1.94-11.05-5.61-1.44-1.97-35.26-49.28-35.26-136.1,0-4.54,2.24-8.77,5.99-11.33,3.75-2.55,8.52-3.1,12.73-1.44l51.95,20.36c.77.31,1.53.68,2.24,1.12,1.9,1.18,4.09,1.8,6.32,1.8h179.49c16.55,0,33.13,3.93,47.94,11.36,4.04,2.03,8.88,4.3,14.11,6.74,30.6,14.34,52.81,25.58,59.91,39.79,3.39,6.77.64,15.01-6.12,18.4-6.77,3.39-15.01.65-18.4-6.14-3.91-7.02-34.12-21.17-47.02-27.22-5.48-2.57-10.56-4.95-14.79-7.07-11.02-5.53-23.33-8.45-35.63-8.45H79.22c-6.89,0-13.65-1.8-19.61-5.22l-31.49-12.34c4.51,64.27,29.04,99.21,29.32,99.59,4.4,6.14,3.03,14.69-3.09,19.13-2.43,1.76-5.25,2.61-8.05,2.61Z"/>
      <path class="cls-2" d="M702.6,312.16c-3.63,0-7.27-1.44-9.97-4.3-4.82-5.09-4.96-12.91-.58-18.17,1.05-1.82,7.93-15.66,9.49-66.67l-22.01,10.34c-6.07,3.58-12.98,5.47-20.05,5.47h-179.48c-12.3,0-24.62,2.92-35.64,8.45-4.22,2.12-9.29,4.5-14.78,7.07-12.9,6.04-43.11,20.2-47.03,27.25-3.63,6.51-11.95,9.18-18.51,5.72-6.59-3.48-9.34-11.34-6-18.01,7.1-14.21,29.31-25.45,59.91-39.79,5.23-2.45,10.07-4.72,14.1-6.74,14.82-7.43,31.4-11.36,47.95-11.36h179.48c2.25,0,4.44-.62,6.33-1.8.45-.29.93-.54,1.41-.77l42.51-19.96c4.27-2,9.23-1.69,13.18.84,3.97,2.52,6.37,6.88,6.37,11.57,0,79.02-10.82,101.04-17.27,107.13-2.65,2.5-6.04,3.74-9.42,3.74ZM693.16,288.5h-.01s0,0,.01,0ZM693.18,288.48s-.01.01-.01.01c0,0,.01,0,.01-.01Z"/>
    </g>
  </g>
</svg>