<?xml version="1.0" encoding="UTF-8" standalone="no"?>
<!DOCTYPE svg PUBLIC "-//W3C//DTD SVG 1.1//EN" "http://www.w3.org/Graphics/SVG/1.1/DTD/svg11.dtd">
<svg width="100%" height="100%" viewBox="0 0 752 1062" version="1.1" xmlns="http://www.w3.org/2000/svg" xmlns:xlink="http://www.w3.org/1999/xlink" xml:space="preserve" xmlns:serif="http://www.serif.com/" style="fill-rule:evenodd;clip-rule:evenodd;stroke-linejoin:round;stroke-miterlimit:2;">
    <g id="Layer_1_copy" transform="matrix(0.724799,0.58392,-0.58392,0.724799,334.366,37.6632)">
        <g id="Layer_3">
            <g id="Layer_1_copy1" serif:id="Layer_1_copy">
                <path d="M194.93,629.96C105.43,629.96 32.63,557.15 32.63,467.67C32.63,378.19 105.43,305.37 194.93,305.37C284.43,305.37 357.22,378.17 357.22,467.67C357.22,557.17 284.41,629.96 194.93,629.96ZM194.93,332.79C120.56,332.79 60.06,393.3 60.06,467.67C60.06,542.04 120.56,602.53 194.93,602.53C269.3,602.53 329.79,542.04 329.79,467.67C329.79,393.3 269.3,332.79 194.93,332.79Z" style="fill:rgb(14,23,71);fill-rule:nonzero;"/>
                <path d="M589.58,629.96C500.08,629.96 427.27,557.15 427.27,467.67C427.27,378.19 500.08,305.37 589.58,305.37C679.08,305.37 751.89,378.17 751.89,467.67C751.89,557.17 679.08,629.96 589.58,629.96ZM589.58,332.79C515.21,332.79 454.71,393.3 454.71,467.67C454.71,542.04 515.21,602.53 589.58,602.53C663.95,602.53 724.45,542.04 724.45,467.67C724.45,393.3 663.95,332.79 589.58,332.79Z" style="fill:rgb(14,23,71);fill-rule:nonzero;"/>
                <path d="M661.04,812.26C655.75,812.26 650.71,809.19 648.46,804.04C645.89,798.19 584.53,663.16 419.76,663.16C412.19,663.16 406.04,657.01 406.04,649.44C406.04,641.87 412.19,635.72 419.76,635.72C602.94,635.72 672.91,791.49 673.6,793.07C676.62,800.01 673.45,808.09 666.5,811.12C664.72,811.89 662.87,812.26 661.04,812.26Z" style="fill:rgb(14,23,71);fill-rule:nonzero;"/>
                <path d="M96.86,892.53C96.53,892.53 96.21,892.52 95.87,892.5C88.32,891.96 82.64,885.43 83.17,877.89C83.32,875.75 101.02,662.65 351.88,635.82C359.46,635.07 366.17,640.48 366.97,648C367.77,655.52 362.32,662.29 354.79,663.09C127.27,687.43 111.1,871.97 110.53,879.82C109.99,887.03 103.97,892.54 96.86,892.54L96.86,892.53Z" style="fill:rgb(14,23,71);fill-rule:nonzero;"/>
                <path d="M387.3,707.79C387.24,707.79 387.17,707.79 387.11,707.78C382.56,707.72 378.33,705.4 375.83,701.6L317.06,611.98C313.5,606.54 314.24,599.36 318.83,594.76L375.05,538.55C380.41,533.19 389.09,533.19 394.45,538.55L455.77,599.87C460.46,604.56 461.11,611.94 457.33,617.39L398.56,701.9C396,705.59 391.78,707.79 387.3,707.79ZM346.11,606.26L387.63,669.58L428.26,611.15L384.75,567.64L346.12,606.26L346.11,606.26Z" style="fill:rgb(105,196,236);fill-rule:nonzero;"/>
                <g>
                    <path d="M178.84,564.28C175.58,564.28 172.28,564.12 168.98,563.79C114.54,558.38 74.66,509.7 80.05,455.28C80.8,447.75 87.46,442.17 95.05,442.98C102.58,443.73 108.09,450.44 107.35,457.98C103.45,497.36 132.3,532.58 171.68,536.5C211.25,540.52 246.3,511.54 250.2,472.15C252.1,453.07 246.45,434.4 234.29,419.57C222.15,404.75 204.94,395.54 185.86,393.64C161.47,391.22 137.86,401.2 122.66,420.36C117.96,426.28 109.33,427.28 103.39,422.56C97.46,417.84 96.47,409.23 101.19,403.29C122.22,376.82 154.96,363.02 188.57,366.35C214.94,368.96 238.71,381.69 255.51,402.18C272.3,422.67 280.11,448.49 277.49,474.85C272.42,525.97 229.18,564.28 178.84,564.28Z" style="fill:rgb(105,196,236);fill-rule:nonzero;"/>
                    <path d="M209.66,480.05C203.3,480.05 197.61,475.61 196.25,469.15C191.87,448.25 182.67,446.54 182.29,446.48C174.72,446.27 169.13,439.98 169.34,432.41C169.55,424.97 176.01,419.1 183.42,419.1C183.55,419.1 183.68,419.11 183.82,419.11C195.01,419.41 215.89,429.12 223.11,463.51C224.66,470.93 219.91,478.19 212.5,479.75C211.55,479.95 210.6,480.04 209.67,480.04L209.66,480.05Z" style="fill:rgb(105,196,236);fill-rule:nonzero;"/>
                </g>
                <g>
                    <path d="M577.38,564.28C574.07,564.28 570.74,564.12 567.41,563.79C512.97,558.38 473.08,509.7 478.47,455.28C479.22,447.75 485.79,442.17 493.47,442.98C501,443.73 506.51,450.44 505.77,457.98C501.87,497.36 530.73,532.58 570.12,536.5C589.26,538.44 607.88,532.75 622.7,520.59C637.53,508.43 646.74,491.24 648.63,472.15C650.53,453.07 644.87,434.39 632.72,419.57C620.56,404.75 603.37,395.54 584.28,393.64C559.8,391.23 536.29,401.21 521.08,420.36C516.35,426.28 507.75,427.28 501.81,422.56C495.88,417.84 494.89,409.22 499.61,403.29C520.65,376.83 553.25,363 586.99,366.35C613.36,368.96 637.14,381.69 653.93,402.18C670.73,422.67 678.53,448.49 675.93,474.85C673.31,501.22 660.58,525 640.09,541.79C622.19,556.46 600.23,564.27 577.39,564.27L577.38,564.28Z" style="fill:rgb(105,196,236);fill-rule:nonzero;"/>
                    <path d="M608.08,480.05C601.72,480.05 596.03,475.61 594.67,469.15C590.29,448.25 581.1,446.54 580.72,446.48C573.15,446.27 567.56,439.98 567.77,432.41C567.98,424.97 574.44,419.1 581.85,419.1C581.98,419.1 582.11,419.11 582.25,419.11C593.44,419.42 614.31,429.12 621.53,463.51C623.08,470.93 618.33,478.19 610.92,479.75C609.97,479.95 609.02,480.04 608.09,480.04L608.08,480.05Z" style="fill:rgb(105,196,236);fill-rule:nonzero;"/>
                </g>
                <path d="M399.25,1036.61L361.2,1036.61C250.02,1036.61 148.32,983.06 89.14,893.38C81.47,881.75 74.25,869.38 67.67,856.62C44.75,812.08 32.64,760.91 32.64,708.6L32.64,616.25L60.07,616.25L60.07,708.6C60.07,756.56 71.13,803.41 92.06,844.07C98.18,855.95 104.9,867.46 112.04,878.27C166.13,960.24 259.28,1009.18 361.21,1009.18L399.26,1009.18C456.77,1009.18 511.64,993.66 557.91,964.29C587.07,945.76 612.7,923.63 634.07,898.48C678.11,846.71 702.35,778.7 702.35,706.96L699.18,550.89L726.59,550.33L729.77,706.67C729.78,785.19 703.21,859.52 654.96,916.24C631.8,943.48 604.09,967.43 572.6,987.43C521.93,1019.6 461.98,1036.6 399.25,1036.6L399.25,1036.61Z" style="fill:rgb(14,23,71);fill-rule:nonzero;"/>
                <g>
                    <path d="M557.5,1061.83L531.77,1061.49L551.47,977.73L577.2,978.06L557.5,1061.83Z" style="fill:rgb(105,196,236);fill-rule:nonzero;"/>
                </g>
                <rect x="186.32" y="138.92" width="27.43" height="83.07" style="fill:rgb(105,196,236);"/>
                <rect x="522.8" y="138.92" width="27.43" height="83.07" style="fill:rgb(105,196,236);"/>
                <g>
                    <g id="_Mirror_Repeat_">
                        <g>
                            <clipPath id="_clip1">
                                <rect x="92.84" y="0" width="276.62" height="143.84"/>
                            </clipPath>
                            <g clip-path="url(#_clip1)">
                                <path d="M194.93,143.85C193.37,143.85 191.81,143.58 190.33,143.06L101.95,111.62C96.42,109.65 92.75,104.38 92.84,98.5C92.92,92.63 96.74,87.46 102.33,85.65L365.23,0.67C372.41,-1.67 380.16,2.3 382.5,9.5C384.83,16.7 380.87,24.43 373.66,26.76L149.2,99.31L196.06,115.98C210.53,113.48 265.28,105.41 369.45,105.41C377.02,105.41 383.17,111.55 383.17,119.12C383.17,126.69 377.02,132.83 369.45,132.83C252.07,132.83 198.19,143.46 197.67,143.57C196.76,143.75 195.85,143.84 194.93,143.84L194.93,143.85Z" style="fill:rgb(105,196,236);fill-rule:nonzero;"/>
                            </g>
                        </g>
                    </g>
                    <g id="_Mirror_Repeat_-2_" serif:id="_Mirror_Repeat_-2">
                        <g>
                            <clipPath id="_clip2">
                                <rect x="369.44" y="0" width="276.62" height="143.84"/>
                            </clipPath>
                            <g clip-path="url(#_clip2)">
                                <path d="M543.97,143.85C543.05,143.85 542.14,143.76 541.23,143.58C540.71,143.48 486.83,132.84 369.45,132.84C361.88,132.84 355.73,126.7 355.73,119.13C355.73,111.56 361.88,105.42 369.45,105.42C473.62,105.42 528.37,113.49 542.84,115.99L589.7,99.32L365.23,26.77C358.02,24.44 354.06,16.71 356.39,9.51C358.73,2.31 366.49,-1.66 373.66,0.68L636.56,85.65C642.15,87.45 645.97,92.62 646.05,98.5C646.14,104.37 642.48,109.65 636.94,111.62L548.56,143.06C547.08,143.58 545.52,143.85 543.96,143.85L543.97,143.85Z" style="fill:rgb(105,196,236);fill-rule:nonzero;"/>
                            </g>
                        </g>
                    </g>
                </g>
                <path d="M104.31,172.93C96.74,172.93 90.59,166.79 90.59,159.22L90.59,99.86C90.59,92.29 96.74,86.15 104.31,86.15C111.88,86.15 118.03,92.29 118.03,99.86L118.03,159.22C118.03,166.79 111.88,172.93 104.31,172.93Z" style="fill:rgb(105,196,236);fill-rule:nonzero;"/>
                <path d="M133.16,238.88C130.94,238.88 128.68,238.34 126.59,237.19C119.94,233.56 117.51,225.23 121.14,218.58C123.34,214.55 124.51,210 124.51,205.45C124.51,191.74 114.4,180.6 101.97,180.6C89.54,180.6 79.43,191.75 79.43,205.45C79.43,208.58 79.94,211.61 80.92,214.22C83.59,221.31 80,229.21 72.91,231.88C65.88,234.52 57.91,230.96 55.26,223.86C53.09,218.12 52.01,211.92 52.01,205.44C52.01,176.62 74.43,153.16 101.98,153.16C129.53,153.16 151.96,176.61 151.96,205.44C151.96,214.58 149.63,223.67 145.22,231.73C142.73,236.28 138.04,238.87 133.18,238.87L133.16,238.88Z" style="fill:rgb(105,196,236);fill-rule:nonzero;"/>
                <path d="M46.31,342.61C42.09,342.61 37.94,340.67 35.26,337C33.82,335.03 0,287.72 0,200.9C0,196.36 2.24,192.13 5.99,189.57C9.74,187.02 14.51,186.47 18.72,188.13L70.67,208.49C71.44,208.8 72.2,209.17 72.91,209.61C74.81,210.79 77,211.41 79.23,211.41L258.72,211.41C275.27,211.41 291.85,215.34 306.66,222.77C310.7,224.8 315.54,227.07 320.77,229.51C351.37,243.85 373.58,255.09 380.68,269.3C384.07,276.07 381.32,284.31 374.56,287.7C367.79,291.09 359.55,288.35 356.16,281.56C352.25,274.54 322.04,260.39 309.14,254.34C303.66,251.77 298.58,249.39 294.35,247.27C283.33,241.74 271.02,238.82 258.72,238.82L79.22,238.82C72.33,238.82 65.57,237.02 59.61,233.6L28.12,221.26C32.63,285.53 57.16,320.47 57.44,320.85C61.84,326.99 60.47,335.54 54.35,339.98C51.92,341.74 49.1,342.59 46.3,342.59L46.31,342.61Z" style="fill:rgb(14,23,71);fill-rule:nonzero;"/>
                <path d="M702.6,312.16C698.97,312.16 695.33,310.72 692.63,307.86C687.81,302.77 687.67,294.95 692.05,289.69C693.1,287.87 699.98,274.03 701.54,223.02L679.53,233.36C673.46,236.94 666.55,238.83 659.48,238.83L480,238.83C467.7,238.83 455.38,241.75 444.36,247.28C440.14,249.4 435.07,251.78 429.58,254.35C416.68,260.39 386.47,274.55 382.55,281.6C378.92,288.11 370.6,290.78 364.04,287.32C357.45,283.84 354.7,275.98 358.04,269.31C365.14,255.1 387.35,243.86 417.95,229.52C423.18,227.07 428.02,224.8 432.05,222.78C446.87,215.35 463.45,211.42 480,211.42L659.48,211.42C661.73,211.42 663.92,210.8 665.81,209.62C666.26,209.33 666.74,209.08 667.22,208.85L709.73,188.89C714,186.89 718.96,187.2 722.91,189.73C726.88,192.25 729.28,196.61 729.28,201.3C729.28,280.32 718.46,302.34 712.01,308.43C709.36,310.93 705.97,312.17 702.59,312.17L702.6,312.16ZM693.16,288.5L693.15,288.5L693.16,288.5ZM693.18,288.48L693.17,288.49C693.17,288.49 693.18,288.49 693.18,288.48Z" style="fill:rgb(14,23,71);fill-rule:nonzero;"/>
            </g>
        </g>
    </g>
</svg>
